<svg width="224" height="150" viewBox="0 0 224 150" fill="none" xmlns="http://www.w3.org/2000/svg">
  <g clip-path="url(#clip0_3012_7296)">
    <rect width="109" height="22" transform="matrix(0.994522 -0.104528 0 1 58 69.3936)" fill="#FFDF20" />
    <g clip-path="url(#clip1_3012_7296)">
      <path
        d="M69.935 73.4211L67.4158 77.4854L63.3213 75.8572L65.1122 84.3129L74.7578 83.2991L76.5487 74.467L72.4542 76.9559L69.935 73.4211Z"
        fill="black" />
    </g>
    <path
      d="M84.9114 81.5649V74.9649C84.9114 74.7249 84.8438 74.544 84.7085 74.4222C84.5812 74.2996 84.3942 74.2513 84.1476 74.2772L82.7274 74.4265V73.2745L84.3624 73.1026C85.0069 73.0349 85.4922 73.1519 85.8184 73.4536C86.1526 73.7465 86.3196 74.2209 86.3196 74.8769V81.4169L84.9114 81.5649ZM82.4887 81.8195V80.6675L88.4081 80.0454V81.1974L82.4887 81.8195ZM92.6043 80.9003C92.0076 80.9631 91.4825 80.8823 91.029 80.6579C90.5835 80.4327 90.2374 80.0811 89.9907 79.603C89.7441 79.125 89.6208 78.5459 89.6208 77.8659C89.6208 77.1859 89.7441 76.581 89.9907 76.051C90.2374 75.5211 90.5835 75.0967 91.029 74.7779C91.4825 74.4583 92.0076 74.2671 92.6043 74.2043C93.2011 74.1416 93.7222 74.2229 94.1677 74.448C94.6212 74.6724 94.9713 75.0236 95.2179 75.5016C95.4646 75.9717 95.5879 76.5508 95.5879 77.2388C95.5879 77.9188 95.4646 78.5237 95.2179 79.0536C94.9713 79.5836 94.6212 80.0084 94.1677 80.328C93.7222 80.6469 93.2011 80.8376 92.6043 80.9003ZM92.6043 79.6283C93.0897 79.5773 93.4636 79.358 93.7262 78.9704C93.9887 78.5748 94.12 78.049 94.12 77.393C94.12 76.737 93.9887 76.2428 93.7262 75.9104C93.4636 75.57 93.0897 75.4253 92.6043 75.4763C92.119 75.5274 91.7451 75.7507 91.4825 76.1463C91.22 76.5339 91.0887 77.0556 91.0887 77.7116C91.0887 78.3676 91.22 78.8659 91.4825 79.2063C91.7451 79.5387 92.119 79.6794 92.6043 79.6283ZM98.6862 80.1171V73.7091L99.7602 73.5962L99.8676 75.2409L99.7602 75.2522C99.8398 74.6839 100.007 74.2503 100.261 73.9516C100.524 73.652 100.894 73.4771 101.371 73.4269L102.768 73.2801V74.4681L101.455 74.6061C101.153 74.6379 100.902 74.7202 100.703 74.8531C100.504 74.986 100.353 75.1659 100.25 75.3928C100.146 75.6197 100.094 75.8971 100.094 76.2251V79.9691L98.6862 80.1171ZM97.1108 80.2827V79.1307L102.064 78.6101V79.7621L97.1108 80.2827ZM97.1108 75.0267V73.8747L99.5096 73.6226V74.7746L97.1108 75.0267ZM106.319 79.4588C105.786 79.5149 105.325 79.4314 104.935 79.2083C104.545 78.9773 104.243 78.6251 104.028 78.1517C103.821 77.6694 103.718 77.0803 103.718 76.3843C103.718 75.6883 103.821 75.0814 104.028 74.5637C104.243 74.0371 104.545 73.6213 104.935 73.3163C105.325 73.0034 105.786 72.8189 106.319 72.7628C106.765 72.716 107.151 72.7794 107.477 72.9532C107.811 73.118 108.054 73.3365 108.205 73.6086V70.5966L109.613 70.4486V78.9686L108.277 79.1091L108.241 78.1169C108.074 78.4704 107.823 78.7728 107.489 79.0239C107.163 79.2662 106.773 79.4112 106.319 79.4588ZM106.654 78.1517C106.964 78.1191 107.234 78.0067 107.465 77.8144C107.704 77.6213 107.887 77.3661 108.014 77.0487C108.141 76.7233 108.205 76.3446 108.205 75.9126C108.205 75.4726 108.141 75.1073 108.014 74.8167C107.887 74.5181 107.704 74.3013 107.465 74.1664C107.234 74.0227 106.956 73.9679 106.63 74.0022C106.176 74.0499 105.822 74.2711 105.568 74.6659C105.313 75.0526 105.186 75.574 105.186 76.23C105.186 76.886 105.313 77.3846 105.568 77.7259C105.822 78.0591 106.184 78.2011 106.654 78.1517ZM121.228 77.8919C120.631 77.9546 120.106 77.8738 119.653 77.6495C119.207 77.4243 118.861 77.0727 118.614 76.5946C118.368 76.1165 118.244 75.5375 118.244 74.8575C118.244 74.1775 118.368 73.5725 118.614 73.0426C118.861 72.5127 119.207 72.0883 119.653 71.7695C120.106 71.4498 120.631 71.2586 121.228 71.1959C121.825 71.1332 122.346 71.2144 122.791 71.4396C123.245 71.6639 123.595 72.0151 123.842 72.4932C124.088 72.9633 124.211 73.5423 124.211 74.2303C124.211 74.9103 124.088 75.5153 123.842 76.0452C123.595 76.5751 123.245 76.9999 122.791 77.3196C122.346 77.6384 121.825 77.8292 121.228 77.8919ZM121.228 76.6199C121.713 76.5689 122.087 76.3496 122.35 75.962C122.612 75.5664 122.744 75.0406 122.744 74.3846C122.744 73.7286 122.612 73.2344 122.35 72.902C122.087 72.5616 121.713 72.4169 121.228 72.4679C120.743 72.5189 120.369 72.7422 120.106 73.1378C119.844 73.5254 119.712 74.0472 119.712 74.7032C119.712 75.3592 119.844 75.8574 120.106 76.1978C120.369 76.5302 120.743 76.6709 121.228 76.6199ZM127.226 77.1174V70.4574C127.226 69.8334 127.377 69.3536 127.68 69.0178C127.982 68.674 128.451 68.4687 129.088 68.4018L131.176 68.1823V69.3343L129.339 69.5274C129.1 69.5525 128.925 69.6349 128.813 69.7746C128.702 69.9063 128.646 70.0882 128.646 70.3202V76.9682L127.226 77.1174ZM125.591 72.0333V70.8813L131.105 70.3018V71.4538L125.591 72.0333ZM142.099 75.6983C141.566 75.7543 141.104 75.6708 140.715 75.4478C140.325 75.2167 140.022 74.8645 139.808 74.3911C139.601 73.9088 139.497 73.3197 139.497 72.6237C139.497 71.9277 139.601 71.3208 139.808 70.8031C140.022 70.2765 140.325 69.8607 140.715 69.5558C141.104 69.2428 141.566 69.0583 142.099 69.0023C142.544 68.9554 142.93 69.0189 143.257 69.1926C143.591 69.3575 143.833 69.576 143.985 69.8481V66.8361L145.393 66.6881V75.2081L144.056 75.3485L144.02 74.3563C143.853 74.7099 143.603 75.0122 143.268 75.2633C142.942 75.5056 142.552 75.6506 142.099 75.6983ZM142.433 74.3911C142.743 74.3585 143.014 74.2461 143.245 74.0538C143.483 73.8608 143.666 73.6055 143.794 73.2881C143.921 72.9628 143.985 72.5841 143.985 72.1521C143.985 71.7121 143.921 71.3468 143.794 71.0561C143.666 70.7575 143.483 70.5408 143.245 70.4058C143.014 70.2621 142.735 70.2074 142.409 70.2416C141.956 70.2893 141.602 70.5105 141.347 70.9053C141.092 71.292 140.965 71.8134 140.965 72.4694C140.965 73.1254 141.092 73.624 141.347 73.9653C141.602 74.2985 141.964 74.4405 142.433 74.3911ZM149.911 74.8772C149.314 74.9399 148.789 74.8591 148.336 74.6347C147.89 74.4096 147.544 74.0579 147.298 73.5799C147.051 73.1018 146.928 72.5227 146.928 71.8427C146.928 71.1707 147.051 70.5738 147.298 70.0519C147.544 69.5219 147.886 69.094 148.324 68.768C148.769 68.4412 149.291 68.2464 149.887 68.1837C150.46 68.1235 150.965 68.2064 151.403 68.4324C151.849 68.6575 152.195 69.0092 152.441 69.4872C152.696 69.9645 152.823 70.5511 152.823 71.2471V71.6191L148.384 72.0857C148.423 72.6255 148.579 73.0252 148.849 73.2848C149.127 73.5435 149.49 73.6495 149.935 73.6026C150.277 73.5667 150.56 73.457 150.782 73.2736C151.013 73.0813 151.172 72.8486 151.26 72.5754L152.704 72.5316C152.505 73.1925 152.167 73.7321 151.689 74.1503C151.212 74.5604 150.619 74.8027 149.911 74.8772ZM148.396 71.0525L151.296 70.7477C151.256 70.2638 151.109 69.9193 150.854 69.7141C150.599 69.5008 150.273 69.4151 149.875 69.4569C149.478 69.4987 149.147 69.6574 148.885 69.933C148.63 70.1998 148.467 70.5729 148.396 71.0525ZM156.136 74.0789L153.904 67.9054L155.42 67.7461L157.007 72.4513L158.595 67.4125L160.11 67.2532L157.879 73.8957L156.136 74.0789Z"
      fill="black" />
  </g>
  <g style="mix-blend-mode:plus-lighter" opacity="0.3" filter="url(#filter0_dddddd_3012_7296)">
    <rect width="108.595" height="22.2013" transform="matrix(0.994522 -0.104528 0 1 58 69.3228)" fill="#FFDF20" />
  </g>
  <defs>
    <filter id="filter0_dddddd_3012_7296" x="0.417999" y="0.389679" width="223.164" height="148.716"
      filterUnits="userSpaceOnUse" color-interpolation-filters="sRGB">
      <feFlood flood-opacity="0" result="BackgroundImageFix" />
      <feColorMatrix in="SourceAlpha" type="matrix" values="0 0 0 0 0 0 0 0 0 0 0 0 0 0 0 0 0 0 127 0"
        result="hardAlpha" />
      <feOffset />
      <feGaussianBlur stdDeviation="0.6855" />
      <feColorMatrix type="matrix" values="0 0 0 0 1 0 0 0 0 0.87451 0 0 0 0 0.12549 0 0 0 1 0" />
      <feBlend mode="normal" in2="BackgroundImageFix" result="effect1_dropShadow_3012_7296" />
      <feColorMatrix in="SourceAlpha" type="matrix" values="0 0 0 0 0 0 0 0 0 0 0 0 0 0 0 0 0 0 127 0"
        result="hardAlpha" />
      <feOffset />
      <feGaussianBlur stdDeviation="1.371" />
      <feColorMatrix type="matrix" values="0 0 0 0 1 0 0 0 0 0.87451 0 0 0 0 0.12549 0 0 0 1 0" />
      <feBlend mode="normal" in2="effect1_dropShadow_3012_7296" result="effect2_dropShadow_3012_7296" />
      <feColorMatrix in="SourceAlpha" type="matrix" values="0 0 0 0 0 0 0 0 0 0 0 0 0 0 0 0 0 0 127 0"
        result="hardAlpha" />
      <feOffset />
      <feGaussianBlur stdDeviation="4.7985" />
      <feColorMatrix type="matrix" values="0 0 0 0 1 0 0 0 0 0.87451 0 0 0 0 0.12549 0 0 0 1 0" />
      <feBlend mode="normal" in2="effect2_dropShadow_3012_7296" result="effect3_dropShadow_3012_7296" />
      <feColorMatrix in="SourceAlpha" type="matrix" values="0 0 0 0 0 0 0 0 0 0 0 0 0 0 0 0 0 0 127 0"
        result="hardAlpha" />
      <feOffset />
      <feGaussianBlur stdDeviation="9.597" />
      <feColorMatrix type="matrix" values="0 0 0 0 1 0 0 0 0 0.87451 0 0 0 0 0.12549 0 0 0 1 0" />
      <feBlend mode="normal" in2="effect3_dropShadow_3012_7296" result="effect4_dropShadow_3012_7296" />
      <feColorMatrix in="SourceAlpha" type="matrix" values="0 0 0 0 0 0 0 0 0 0 0 0 0 0 0 0 0 0 127 0"
        result="hardAlpha" />
      <feOffset />
      <feGaussianBlur stdDeviation="16.452" />
      <feColorMatrix type="matrix" values="0 0 0 0 1 0 0 0 0 0.87451 0 0 0 0 0.12549 0 0 0 1 0" />
      <feBlend mode="normal" in2="effect4_dropShadow_3012_7296" result="effect5_dropShadow_3012_7296" />
      <feColorMatrix in="SourceAlpha" type="matrix" values="0 0 0 0 0 0 0 0 0 0 0 0 0 0 0 0 0 0 127 0"
        result="hardAlpha" />
      <feOffset />
      <feGaussianBlur stdDeviation="28.791" />
      <feColorMatrix type="matrix" values="0 0 0 0 1 0 0 0 0 0.87451 0 0 0 0 0.12549 0 0 0 1 0" />
      <feBlend mode="normal" in2="effect5_dropShadow_3012_7296" result="effect6_dropShadow_3012_7296" />
      <feBlend mode="normal" in="SourceGraphic" in2="effect6_dropShadow_3012_7296" result="shape" />
    </filter>
    <clipPath id="clip0_3012_7296">
      <rect width="109" height="22" fill="white" transform="matrix(0.994522 -0.104528 0 1 58 69.3936)" />
    </clipPath>
    <clipPath id="clip1_3012_7296">
      <rect width="14" height="14" fill="white" transform="matrix(0.994522 -0.104528 0 1 62.9727 72.8711)" />
    </clipPath>
  </defs>
</svg>